<svg width="1176" height="1118" viewBox="0 0 1176 1118" fill="none" xmlns="http://www.w3.org/2000/svg">
<circle cx="570.5" cy="549.5" r="526" stroke="#A2A2A2" stroke-width="3"/>
<rect x="359.5" y="246.128" width="90.6383" height="656.393" rx="26" fill="#1AFFA3"/>
<path d="M470.826 540.51C471.06 542.451 471.318 544.481 471.6 546.591C478.496 548.374 485.785 550.394 493.485 552.666C587.701 741.075 684.303 728.919 763.015 817.654C825.985 888.642 728.032 869.112 671.184 850.474C642.164 831.43 574.583 780.458 536.419 728.919C499.754 698.089 478.5 598.222 471.6 546.591C468.405 545.765 465.294 544.99 462.265 544.264L368.261 585.485C351.029 558.953 348.743 517.049 462.265 544.264L470.826 540.51Z" fill="#1AFFA3"/>
<path d="M547.93 451.553C529.802 491.423 472.796 533.805 446.558 550.012C406.01 574.323 347.333 613.95 437.017 577.97C549.123 532.994 663.613 400.5 683.887 374.974C704.162 349.447 707.74 336.076 718.473 312.981C727.06 294.505 722.051 263.954 718.473 250.988C707.74 241.264 679.117 224.976 650.494 237.617C621.872 250.259 605.175 283.403 600.405 298.395C590.466 332.835 566.058 411.683 547.93 451.553Z" fill="#1AFFA3"/>
</svg>
